<svg width="512" height="512" viewBox="0 0 512 512" fill="none" xmlns="http://www.w3.org/2000/svg">
<path d="M210.853 477.205C216.146 477.415 221.458 476.948 226.75 477.205C226.733 479.823 227.246 494.666 226.752 495.67L225.812 495.75C220.15 495.764 214.446 495.542 208.79 495.75C209.534 489.658 208.934 483.053 210.853 477.205Z" fill="black"/>
<path d="M175.704 472.334C180.369 472.924 187.946 473.91 192.237 475.548C191.723 478.075 189.9 492.407 189.123 493.299L188.196 493.157C182.48 492.378 176.642 491.17 171.028 489.83C172.357 483.99 174.044 478.095 175.704 472.334Z" fill="black"/>
<path d="M64.3508 392.987C64.912 393.207 72.9727 404.387 74.1513 406.002C72.0174 408.396 62.0779 417.8 60.0016 417.824C55.9302 413.474 52.3738 408.078 49.1407 403.073C53.0907 400.027 60.0163 395.39 64.3508 392.987Z" fill="black"/>
<path d="M112.559 443.654C117.438 446.295 121.935 449.593 126.86 452.218C125.818 454.458 119.456 467.621 117.96 468.612L117.406 468.388C112.235 465.29 107.23 461.96 102.22 458.611C105.663 453.634 108.905 448.476 112.559 443.654Z" fill="black"/>
<path d="M37.9174 327.521L38.3662 327.587C39.4137 329.447 41.9005 341.534 42.6194 344.42C37.3073 346.853 31.4426 348.511 25.8618 350.229L25.6812 350.195C24.4496 349.005 21.3676 334.039 21.1169 331.679C26.7332 330.353 32.3254 328.945 37.9174 327.521Z" fill="black"/>
<path d="M143.103 460.401C148.236 462.397 153.776 464.383 158.683 466.855C157.626 469.605 153.646 483.208 152.38 484.213L151.952 484.041C146.224 482.39 140.573 480.076 135.357 477.205C137.803 471.641 140.127 465.687 143.103 460.401Z" fill="black"/>
<path d="M34.6453 292.746L35.2196 292.673L35.4611 292.973C36.0445 296.596 36.1296 305.887 35.7021 309.604C30.2426 311.059 24.167 311.662 18.5568 312.436L18.1797 312.252C17.2341 310.067 16.721 296.824 16.7447 293.793C22.728 293.366 28.6341 292.659 34.6453 292.746Z" fill="black"/>
<path d="M260.765 472.334C261.942 473.931 264.867 487.948 265.597 491.024C260.929 492.215 253.917 492.775 249.94 494.357H246.751C246.265 488.065 245.224 481.829 244.636 475.548C250.03 474.622 255.487 473.804 260.765 472.334Z" fill="black"/>
<path d="M86.2712 420.476C87.5056 421.165 96.6347 430.62 98.5478 432.474C96.1631 435.448 89.1996 444.589 86.611 446.46L86.2712 446.297C81.5223 442.433 76.8182 438.107 72.8945 433.401C77.1432 429.379 81.6361 423.841 86.2712 420.476Z" fill="black"/>
<path d="M49.1407 361.495C50.1588 363.105 53.812 373.75 55.9494 377.815C50.737 381.205 44.8934 383.9 39.4714 386.977C36.8088 380.911 33.971 374.974 31.4485 368.837C37.1288 366.077 43.2105 363.66 49.1407 361.495Z" fill="black"/>
<path d="M293.687 461.259L294.076 461.336C295.725 463.348 301.245 476.375 302.313 479.471C297.107 481.702 291.435 483.072 286.53 485.908C285.741 485.788 284.877 485.881 284.077 485.908L278.277 467.323C283.508 465.499 288.594 463.434 293.687 461.259Z" fill="black"/>
<path d="M411.143 240.761C415.099 239.108 418.732 240.378 419.832 244.522C420.802 248.176 421.663 252.302 421.96 253.536C440.589 331.092 405.125 412.553 341.467 458.453C336.334 462.154 330.347 466.477 324.344 469.478C321.766 470.766 318.699 469.462 317.472 466.855V466.855L316.434 464.769C312.916 457.704 315.516 449.173 322.012 444.691C380.558 404.299 415.525 331.602 400.354 261.41C398.571 253.16 402.924 244.209 410.707 240.943C410.853 240.883 410.998 240.822 411.143 240.761Z" fill="black"/>
<path d="M206.318 90.2498C223.514 89.1961 243.269 91.3369 260.79 95.1809C266.645 96.4656 270.198 102.15 268.502 107.9C268.368 108.356 268.233 108.813 268.098 109.27C266.412 115.006 260.717 118.779 254.899 117.402V117.402C167.087 96.639 75.5291 151.874 46.4773 236.551C44.6011 242.047 40.8505 254.435 38.9141 264.645C37.6954 271.07 31.3209 277.03 24.8267 276.257V276.257C20.1458 275.699 16.5913 271.764 17.0576 267.073C17.3972 263.657 17.9489 260.257 18.5205 256.868C30.3555 186.687 81.9449 127.807 148.031 102.942C168.353 95.2964 184.454 92.3118 206.318 90.2498Z" fill="black"/>
<path d="M210.853 162.001C224.677 161.218 238.1 163.305 251.141 167.212C257.735 169.189 260.301 176.659 256.474 182.381V182.381C253.333 187.077 247.414 189.322 241.924 187.992C194.569 176.52 144.936 199.603 121.435 243.041C88.9185 303.141 118.196 378.702 183.562 400.235C235.747 417.425 290.607 394.954 316.323 346.899C329.345 322.565 331.716 297.418 326.266 271.578C324.723 264.262 328.087 256.686 334.989 253.811C335.864 253.447 336.738 253.081 337.61 252.712V252.712C340.982 251.117 345.025 252.672 346.27 256.188C349.367 264.933 351.101 275.722 351.788 284.023C358.017 359.388 303.623 422.848 228.38 428.991C157.033 434.816 91.1141 379.907 85.4593 308.24C79.4012 231.461 134.029 167.904 210.853 162.001Z" fill="black"/>
<path d="M390.145 27.2731C396.706 20.6988 403.627 23.0952 403.548 32.3827C403.483 40.0052 403.257 47.6684 403.257 49.8956L403.256 94.4725C403.255 102.757 409.971 109.473 418.256 109.473H476.549C484.968 109.473 489.066 118.97 483.131 124.941V124.941L412.604 195.558C411.53 196.602 410.469 197.682 409.389 198.742C406.957 201.129 403.63 202.274 400.222 202.275L335.132 202.3C334.369 202.306 333.595 202.327 332.817 202.349C328.745 202.464 324.669 203.737 321.733 206.559C316.414 211.67 311.443 217.277 306.24 222.44C293.951 234.634 281.603 246.841 269.499 259.241C264.938 263.913 264.158 270.962 266.399 277.096C274.212 298.483 270.16 320.344 251.344 336.753C208.758 371.341 148.793 325.023 169.625 275.823C180.327 250.549 207.44 238.212 233.539 246.437C234.152 246.63 234.759 246.835 235.364 247.049C241.087 249.078 247.49 248.131 251.807 243.86C270.548 225.316 288.757 205.847 307.769 187.778C310.558 185.127 312.241 181.524 312.172 177.677C312.157 176.852 312.143 176.03 312.143 175.214L312.134 109.909C312.133 107.348 312.747 104.777 314.491 102.901C316.141 101.125 318.109 99.45 319.636 97.9271L390.145 27.2731ZM380.296 86.624C380.188 77.8858 374.156 75.6908 367.832 81.7219C357.945 91.1504 347.382 101.169 338.832 110.701C336.467 113.337 335.229 116.778 335.229 120.319V164.168C335.229 172.456 341.937 179.197 350.224 179.227C364.44 179.277 384.626 179.338 393.251 179.271C395.982 179.25 398.299 178.035 400.139 176.018C403.162 172.703 406.454 169.602 409.607 166.436L432.214 143.783V143.783C436.567 139.335 433.598 132.554 427.376 132.452C417.045 132.282 406.331 132.115 396.019 132.228C387.44 132.322 380.304 125.497 380.345 116.919C380.389 107.58 380.412 95.9265 380.296 86.624ZM216.79 267.117C177.978 269.278 182.086 326.581 219.118 325.13C258.557 320.69 254.072 267.281 216.79 267.117Z" fill="black"/>
</svg>
